<svg id="calendar_2_" data-name="calendar (2)" xmlns="http://www.w3.org/2000/svg" width="22" height="22" viewBox="0 0 22 22">
  <g id="Group_66" data-name="Group 66">
    <g id="Group_65" data-name="Group 65">
      <path id="Path_112" data-name="Path 112" d="M279,280.738a1.721,1.721,0,0,0,1.719,1.719h2.02a1.721,1.721,0,0,0,1.719-1.719v-2.02A1.721,1.721,0,0,0,282.738,277h-2.02A1.721,1.721,0,0,0,279,278.719Zm1.719-2.02h2.02v2.019h-2.021Z" transform="translate(-267.012 -265.098)" fill="#989898"/>
      <circle id="Ellipse_13" data-name="Ellipse 13" cx="1" cy="1" r="1" transform="translate(16 8)" fill="#989898"/>
      <circle id="Ellipse_14" data-name="Ellipse 14" cx="1" cy="1" r="1" transform="translate(12 8)" fill="#989898"/>
      <path id="Path_113" data-name="Path 113" d="M21.141,15.125A.859.859,0,0,0,22,14.266V5.156a3.441,3.441,0,0,0-3.437-3.437H17.445V.859a.859.859,0,0,0-1.719,0v.859h-3.91V.859a.859.859,0,0,0-1.719,0v.859H6.23V.859a.859.859,0,0,0-1.719,0v.859H3.438A3.441,3.441,0,0,0,0,5.156V18.563A3.441,3.441,0,0,0,3.438,22H18.563A3.441,3.441,0,0,0,22,18.563a.859.859,0,0,0-1.719,0,1.721,1.721,0,0,1-1.719,1.719H3.438a1.721,1.721,0,0,1-1.719-1.719V5.156A1.721,1.721,0,0,1,3.438,3.438H4.512V4.3a.859.859,0,0,0,1.719,0V3.438H10.1V4.3a.859.859,0,0,0,1.719,0V3.438h3.91V4.3a.859.859,0,0,0,1.719,0V3.438h1.117a1.721,1.721,0,0,1,1.719,1.719v9.109A.859.859,0,0,0,21.141,15.125Z" fill="#989898"/>
      <circle id="Ellipse_15" data-name="Ellipse 15" cx="1" cy="1" r="1" transform="translate(4 15)" fill="#989898"/>
      <circle id="Ellipse_16" data-name="Ellipse 16" cx="1" cy="1" r="1" transform="translate(4 8)" fill="#989898"/>
      <circle id="Ellipse_17" data-name="Ellipse 17" cx="1" cy="1" r="1" transform="translate(4 12)" fill="#989898"/>
      <circle id="Ellipse_18" data-name="Ellipse 18" cx="1" cy="1" r="1" transform="translate(8 12)" fill="#989898"/>
      <circle id="Ellipse_19" data-name="Ellipse 19" cx="1" cy="1" r="1" transform="translate(8 8)" fill="#989898"/>
      <circle id="Ellipse_20" data-name="Ellipse 20" cx="1" cy="1" r="1" transform="translate(8 15)" fill="#989898"/>
    </g>
  </g>
</svg>
