<svg xmlns="http://www.w3.org/2000/svg" width="34" height="45.045" viewBox="0 0 34 45.045">
  <g id="Group_248" data-name="Group 248" transform="translate(-448 -801)">
    <g id="document" transform="translate(399.6 801)">
      <g id="Group_169" data-name="Group 169" transform="translate(48.4)">
        <g id="Group_168" data-name="Group 168" transform="translate(0)">
          <path id="Path_380" data-name="Path 380" d="M82.309,8.991l-.046-.046V8.9L73.592.228,73.547.183A.045.045,0,0,1,73.5.137a.045.045,0,0,1-.046-.046A.751.751,0,0,0,73,0H51.5a3.1,3.1,0,0,0-2.191.913A3.187,3.187,0,0,0,48.4,3.1V41.941a3.037,3.037,0,0,0,.867,2.145l.046.046a3.187,3.187,0,0,0,2.191.913H79.3a3.1,3.1,0,0,0,2.191-.913,3.187,3.187,0,0,0,.913-2.191V9.447A1.35,1.35,0,0,0,82.309,8.991Zm-8.443-5.7,5.157,5.157H75.235a1.243,1.243,0,0,1-.958-.411,1.423,1.423,0,0,1-.411-.958V3.286Zm6.572,38.655a1.252,1.252,0,0,1-1.187,1.187H51.5a1.143,1.143,0,0,1-.821-.365l-.046-.046a1.3,1.3,0,0,1-.319-.776V3.058a1.143,1.143,0,0,1,.365-.821,1.143,1.143,0,0,1,.821-.365H71.949V7.028a3.314,3.314,0,0,0,1,2.373,3.384,3.384,0,0,0,2.373.958h5.111V41.941Z" transform="translate(-48.4)" fill="#7f63f4"/>
        </g>
      </g>
    </g>
    <text id="XLS" transform="translate(453 831)" fill="#7f63f4" font-size="14" font-family="OmnesMedium, Omnes"><tspan x="0" y="0">XLS</tspan></text>
  </g>
</svg>
