<svg id="Group_506" data-name="Group 506" xmlns="http://www.w3.org/2000/svg" width="17.126" height="17.126" viewBox="0 0 17.126 17.126">
  <defs> 
  </defs>
  <path id="Path_10" data-name="Path 10" class="cls-1" d="M6.6,0H1.249A1.25,1.25,0,0,0,0,1.249V4.46A1.25,1.25,0,0,0,1.249,5.709H6.6A1.25,1.25,0,0,0,7.849,4.46V1.249A1.25,1.25,0,0,0,6.6,0Zm0,0"/>
  <path id="Path_11" data-name="Path 11" class="cls-1" d="M6.6,213.332H1.249A1.25,1.25,0,0,0,0,214.581v7.493a1.25,1.25,0,0,0,1.249,1.249H6.6a1.25,1.25,0,0,0,1.249-1.249v-7.493A1.25,1.25,0,0,0,6.6,213.332Zm0,0" transform="translate(0 -206.196)"/>
  <path id="Path_12" data-name="Path 12" class="cls-1" d="M283.933,341.332h-5.352a1.25,1.25,0,0,0-1.249,1.249v3.211a1.25,1.25,0,0,0,1.249,1.249h5.352a1.25,1.25,0,0,0,1.249-1.249v-3.211A1.25,1.25,0,0,0,283.933,341.332Zm0,0" transform="translate(-268.056 -329.915)"/>
  <path id="Path_13" data-name="Path 13" class="cls-1" d="M283.933,0h-5.352a1.25,1.25,0,0,0-1.249,1.249V8.741a1.25,1.25,0,0,0,1.249,1.249h5.352a1.25,1.25,0,0,0,1.249-1.249V1.249A1.25,1.25,0,0,0,283.933,0Zm0,0" transform="translate(-268.056)"/>
</svg>
