<svg id="star" xmlns="http://www.w3.org/2000/svg" width="18.087" height="17.27" viewBox="0 0 18.087 17.27">
  <path id="Path_218" data-name="Path 218" d="M18.063,17.537a.5.5,0,0,0-.4-.342l-5.643-.8-2.539-5.1a.5.5,0,0,0-.449-.278h0a.5.5,0,0,0-.449.282L6.072,16.412l-5.643.839a.5.5,0,0,0-.4.342.5.5,0,0,0,.13.512l4.095,3.968L3.3,27.694a.5.5,0,0,0,.494.587.476.476,0,0,0,.234-.059l5.038-2.669,5.052,2.639a.513.513,0,0,0,.23.056h0a.5.5,0,0,0,.5-.5.392.392,0,0,0-.015-.115l-.976-5.587,4.069-3.991A.491.491,0,0,0,18.063,17.537Z" transform="translate(0 -11.011)" fill="#89c540"/>
</svg>
