<svg xmlns="http://www.w3.org/2000/svg" width="54.671" height="48.326" viewBox="0 0 54.671 48.326">
  <path id="folder" d="M48.484,17.276H45.01V11.794A6.518,6.518,0,0,0,38.5,5.284H29.366a4.34,4.34,0,0,1-2.852-1.067L23.6,1.684A6.189,6.189,0,0,0,19.542.164H6.51A6.518,6.518,0,0,0,0,6.674V41A7.5,7.5,0,0,0,7.1,48.48v.01H43.982a6.2,6.2,0,0,0,6.065-4.97l4.5-18.823.008-.035a6.187,6.187,0,0,0-6.069-7.385ZM1.843,41V6.674A4.673,4.673,0,0,1,6.511,2.007H19.542a4.343,4.343,0,0,1,2.852,1.067L25.3,5.607a6.186,6.186,0,0,0,4.061,1.52H38.5a4.673,4.673,0,0,1,4.668,4.668v5.481h-.876a5.053,5.053,0,0,0-4.959-4.124h-.3A5.142,5.142,0,0,0,31.978,8.94H10.785A6.194,6.194,0,0,0,4.6,15.127v30.72A5.65,5.65,0,0,1,1.843,41ZM37.332,15A3.207,3.207,0,0,1,40.4,17.276H24.749a6.164,6.164,0,0,0-6.015,4.739L13,42.262l-.01.039a5.643,5.643,0,0,1-1.282,2.465V19.339A4.349,4.349,0,0,1,16.051,15ZM6.442,46.547V15.127a4.349,4.349,0,0,1,4.344-4.344H31.978a3.3,3.3,0,0,1,3.159,2.369H16.051a6.194,6.194,0,0,0-6.187,6.187v26.79a5.662,5.662,0,0,1-3.422.419Zm46.307-22.26-4.5,18.822-.008.036a4.355,4.355,0,0,1-4.262,3.5H12.425a7.477,7.477,0,0,0,2.353-3.9L20.512,22.5l.01-.039a4.328,4.328,0,0,1,4.227-3.342H48.484a4.344,4.344,0,0,1,4.265,5.169Zm0,0" transform="translate(0 -0.164)" fill="#89c540"/>
</svg>
