<svg xmlns="http://www.w3.org/2000/svg" width="23.4" height="23.4" viewBox="0 0 23.4 23.4">
  <g id="businessman" transform="translate(0)">
    <g id="Group_53" data-name="Group 53" transform="translate(0)">
      <g id="Group_52" data-name="Group 52">
        <path id="Path_44" data-name="Path 44" d="M348.756,423.523a.914.914,0,0,0-1.79.373.955.955,0,0,1-.194.8.929.929,0,0,1-.731.348h-4.127a.914.914,0,1,0,0,1.828h4.127a2.777,2.777,0,0,0,2.715-3.349Z" transform="translate(-325.415 -403.472)" fill="#999"/>
        <path id="Path_45" data-name="Path 45" d="M12.628,12.466a10.056,10.056,0,0,1,7.436,4.424.914.914,0,1,0,1.518-1.018,11.889,11.889,0,0,0-6.161-4.681,6.216,6.216,0,1,0-7.439,0A11.887,11.887,0,0,0,.06,20.051,2.777,2.777,0,0,0,2.774,23.4h3.99a.914.914,0,1,0,0-1.828H2.774a.929.929,0,0,1-.731-.348.955.955,0,0,1-.194-.8,10.1,10.1,0,0,1,8.829-7.947L8.934,20.416a.914.914,0,0,0,.246.843l1.828,1.828a.914.914,0,0,0,1.293,0l1.828-1.828a.914.914,0,0,0,.246-.842ZM7.313,6.216A4.388,4.388,0,1,1,11.918,10.6l-.218,0-.214,0A4.393,4.393,0,0,1,7.313,6.216Zm4.342,14.932-.828-.828.828-3.767.828,3.767Z" transform="translate(0)" fill="#999"/>
      </g>
    </g>
  </g>
</svg>
