<svg xmlns="http://www.w3.org/2000/svg" width="24.512" height="21.146" viewBox="0 0 24.512 21.146">
  <g id="money_1_" data-name="money (1)" transform="translate(0.25 -28.314)">
    <g id="Group_39" data-name="Group 39" transform="translate(0 28.588)">
      <g id="Group_38" data-name="Group 38" transform="translate(0 0)">
        <path id="Path_28" data-name="Path 28" d="M23.953,40.257h0L19.424,28.885a.471.471,0,0,0-.612-.263h0L.439,35.938a.461.461,0,0,0-.188.15A.466.466,0,0,0,0,36.5V48.739a.471.471,0,0,0,.471.471H20.248a.471.471,0,0,0,.471-.471V42.053l2.972-1.184A.471.471,0,0,0,23.953,40.257Zm-4.177,8.011H.942v-11.3H19.777ZM7.857,36.028l7.884-3.142a3.746,3.746,0,0,0,2.7,1.164l.786,1.978Zm12.862,5.013V36.5a.471.471,0,0,0-.471-.471H20.24l-1-2.506a.39.39,0,0,0-.039-.059.465.465,0,0,0-.492-.363,2.816,2.816,0,0,1-2.469-1.063.467.467,0,0,0-.6-.105.529.529,0,0,0-.066.012L5.947,35.774a.465.465,0,0,0-.259.251H2.765l15.959-6.354,4.181,10.5Z" transform="translate(0 -28.588)" fill="#999" stroke="#999" stroke-width="0.5"/>
        <path id="Path_29" data-name="Path 29" d="M32.336,194.125a2.815,2.815,0,0,1,1.9,1.9.471.471,0,0,0,.451.336.431.431,0,0,0,.073-.011.439.439,0,0,0,.065.013h11.3a.406.406,0,0,0,.057-.012.438.438,0,0,0,.53-.322v0a2.815,2.815,0,0,1,1.9-1.9.465.465,0,0,0,.323-.518.474.474,0,0,0,.014-.07V189.77a.425.425,0,0,0-.014-.07.464.464,0,0,0-.323-.518,2.813,2.813,0,0,1-1.9-1.9.465.465,0,0,0-.522-.323.447.447,0,0,0-.066-.013h-11.3a.445.445,0,0,0-.07.014.465.465,0,0,0-.518.323,2.815,2.815,0,0,1-1.9,1.9.465.465,0,0,0-.323.518.475.475,0,0,0-.013.07v3.767a.435.435,0,0,0,.013.065A.466.466,0,0,0,32.336,194.125Zm.606-4.164a3.736,3.736,0,0,0,2.075-2.075H45.935a3.737,3.737,0,0,0,2.075,2.075v3.385a3.741,3.741,0,0,0-2.075,2.075H35.016a3.741,3.741,0,0,0-2.075-2.075Z" transform="translate(-30.117 -177.624)" fill="#999" stroke="#999" stroke-width="0.5"/>
        <path id="Path_30" data-name="Path 30" d="M130.825,224.6A2.825,2.825,0,1,0,128,221.77,2.825,2.825,0,0,0,130.825,224.6Zm0-4.709a1.883,1.883,0,1,1-1.883,1.883A1.884,1.884,0,0,1,130.825,219.887Z" transform="translate(-120.466 -207.741)" fill="#999" stroke="#999" stroke-width="0.5"/>
        <path id="Path_31" data-name="Path 31" d="M76.706,256.358a.706.706,0,1,0-.706-.706A.706.706,0,0,0,76.706,256.358Zm0-.942a.235.235,0,1,1-.235.235A.235.235,0,0,1,76.706,255.416Z" transform="translate(-71.527 -241.622)" fill="#999" stroke="#999" stroke-width="0.5"/>
        <path id="Path_32" data-name="Path 32" d="M252.706,256.358a.706.706,0,1,0-.706-.706A.706.706,0,0,0,252.706,256.358Zm0-.942a.235.235,0,1,1-.235.235A.235.235,0,0,1,252.706,255.416Z" transform="translate(-237.168 -241.622)" fill="#999" stroke="#999" stroke-width="0.5"/>
      </g>
    </g>
  </g>
</svg>
