<svg id="levels" xmlns="http://www.w3.org/2000/svg" width="23.067" height="20.923" viewBox="0 0 23.067 20.923">
  <g id="Group_20" data-name="Group 20">
    <g id="Group_19" data-name="Group 19">
      <path id="Path_13" data-name="Path 13" d="M3.891,26.822V23.79H2.539v3.032H0v5.284H2.539V44.713H3.891V32.105H6.429V26.822Zm1.187,3.932H1.352V28.173H5.078Z" transform="translate(0 -23.79)" fill="#999"/>
    </g>
  </g>
  <g id="Group_22" data-name="Group 22" transform="translate(8.318)">
    <g id="Group_21" data-name="Group 21">
      <path id="Path_14" data-name="Path 14" d="M188.531,33.122V23.79h-1.352v9.332H184.64v5.284h2.539v6.307h1.352V38.406h2.539V33.122Zm1.188,3.933h-3.727V34.474h3.727Z" transform="translate(-184.64 -23.79)" fill="#999"/>
    </g>
  </g>
  <g id="Group_24" data-name="Group 24" transform="translate(16.637)">
    <g id="Group_23" data-name="Group 23">
      <path id="Path_15" data-name="Path 15" d="M373.18,26.822V23.79h-1.352v3.032H369.29v5.284h2.539V44.713h1.352V32.105h2.539V26.822Zm1.188,3.932h-3.726V28.173h3.726Z" transform="translate(-369.29 -23.79)" fill="#999"/>
    </g>
  </g>
</svg>
