<svg xmlns="http://www.w3.org/2000/svg" width="23.4" height="20.566" viewBox="0 0 23.4 20.566">
  <g id="live-chat" transform="translate(0 -31.007)">
    <path id="Path_39" data-name="Path 39" d="M21.343,36.491H19.93a8.918,8.918,0,0,0-16.455,0H2.057A2.059,2.059,0,0,0,0,38.548V41.29a2.059,2.059,0,0,0,2.057,2.057H4.865l-.294-.9a7.558,7.558,0,1,1,7.139,5.012,2.057,2.057,0,1,0,2.046,2.057V48.59a8.947,8.947,0,0,0,6.17-5.244h1.417A2.059,2.059,0,0,0,23.4,41.29V38.548a2.059,2.059,0,0,0-2.057-2.057ZM3.019,41.975H2.057a.686.686,0,0,1-.686-.686V38.548a.686.686,0,0,1,.686-.686h.971q-.037.154-.068.31A9.047,9.047,0,0,0,3.019,41.975Zm9.366,7.541a.686.686,0,0,1-1.371,0,.693.693,0,0,1,.7-.686q.338,0,.673-.026Zm9.643-8.227a.686.686,0,0,1-.686.686h-.971a8.978,8.978,0,0,0,.123-3.52q-.048-.3-.118-.594h.967a.686.686,0,0,1,.686.686Z" fill="#999"/>
    <path id="Path_40" data-name="Path 40" d="M181,210.993h1.371v1.371H181Z" transform="translate(-172.728 -171.76)" fill="#999"/>
    <path id="Path_41" data-name="Path 41" d="M241,210.993h1.371v1.371H241Z" transform="translate(-229.986 -171.76)" fill="#999"/>
    <path id="Path_42" data-name="Path 42" d="M301,210.993h1.371v1.371H301Z" transform="translate(-287.243 -171.76)" fill="#999"/>
    <path id="Path_43" data-name="Path 43" d="M121,101.962v1.371h6.17a6.17,6.17,0,1,0-4.852-2.359A1.363,1.363,0,0,1,121,101.962Zm6.17-9.6a4.8,4.8,0,1,1,0,9.6h-3.794a2.73,2.73,0,0,0,.355-1.118l.027-.294-.195-.221a4.8,4.8,0,0,1,3.607-7.964Z" transform="translate(-115.47 -57.244)" fill="#999"/>
  </g>
</svg>
