<svg xmlns="http://www.w3.org/2000/svg" width="23.6" height="23.597" viewBox="0 0 23.6 23.597">
  <g id="luggage" transform="translate(0 -0.028)">
    <path id="Path_26" data-name="Path 26" d="M18.991,149.574h-.6a4.608,4.608,0,0,1-4.226-2.765H10.157a4.73,4.73,0,0,1-3.3-1.362,1.978,1.978,0,0,1,0-2.806,4.731,4.731,0,0,1,3.3-1.362h4.009a4.608,4.608,0,0,1,4.226-2.765h.6a4.614,4.614,0,0,1,4.609,4.609v1.844A4.614,4.614,0,0,1,18.991,149.574Zm-8.834-6.452a2.874,2.874,0,0,0-2.007.828.134.134,0,0,0,0,.187,2.873,2.873,0,0,0,2.007.828h4.664a.922.922,0,0,1,.893.692,2.763,2.763,0,0,0,2.678,2.073h.6a2.768,2.768,0,0,0,2.765-2.765v-1.844a2.768,2.768,0,0,0-2.765-2.765h-.6a2.763,2.763,0,0,0-2.678,2.073.922.922,0,0,1-.893.692Zm3.624,6.452a.922.922,0,0,0-.922-.922H5.531a3.691,3.691,0,0,1-3.687-3.687v-6.406a3.691,3.691,0,0,1,3.687-3.687H18.067a3.7,3.7,0,0,1,3.345,2.134.922.922,0,0,0,1.672-.778,5.552,5.552,0,0,0-5.017-3.2H5.531A5.537,5.537,0,0,0,0,138.559v6.406A5.537,5.537,0,0,0,5.531,150.5h7.328A.922.922,0,0,0,13.781,149.574Z" transform="translate(0 -126.87)" fill="#999"/>
    <path id="Path_27" data-name="Path 27" d="M177.913,4.867a.922.922,0,0,1-.922-.922,2.074,2.074,0,0,0-4.148,0,.922.922,0,1,1-1.844,0,3.918,3.918,0,0,1,7.835,0A.922.922,0,0,1,177.913,4.867Zm4.427,11.153a1.152,1.152,0,1,0,1.152,1.152A1.152,1.152,0,0,0,182.34,16.021Z" transform="translate(-163.119)" fill="#999"/>
  </g>
</svg>
