<svg xmlns="http://www.w3.org/2000/svg" width="26.5" height="26.195" viewBox="0 0 26.5 26.195">
  <g id="money" transform="translate(0.25 -2.75)">
    <g id="Group_41" data-name="Group 41" transform="translate(15.232 15.858)">
      <g id="Group_40" data-name="Group 40">
        <path id="Path_33" data-name="Path 33" d="M302.087,259.865a.977.977,0,1,1,1.117-.967.508.508,0,0,0,1.016,0,2.02,2.02,0,0,0-1.625-1.925v-.264a.508.508,0,0,0-1.016,0v.264a2.02,2.02,0,0,0-1.625,1.925,2.064,2.064,0,0,0,2.133,1.983.977.977,0,1,1-1.117.967.508.508,0,1,0-1.016,0,2.02,2.02,0,0,0,1.625,1.925v.219a.508.508,0,0,0,1.016,0v-.219a2.02,2.02,0,0,0,1.625-1.925A2.064,2.064,0,0,0,302.087,259.865Z" transform="translate(-299.954 -256.201)" fill="#999" stroke="#999" stroke-width="0.5"/>
      </g>
    </g>
    <g id="Group_43" data-name="Group 43" transform="translate(19.496 14.059)">
      <g id="Group_42" data-name="Group 42">
        <path id="Path_34" data-name="Path 34" d="M387.355,223.227a6.616,6.616,0,0,0-2.7-2.392.508.508,0,0,0-.44.915,5.591,5.591,0,0,1,2.518,7.657.508.508,0,1,0,.9.477,6.609,6.609,0,0,0-.272-6.658Z" transform="translate(-383.924 -220.785)" fill="#999" stroke="#999" stroke-width="0.5"/>
      </g>
    </g>
    <g id="Group_45" data-name="Group 45" transform="translate(17.621 13.461)">
      <g id="Group_44" data-name="Group 44">
        <path id="Path_35" data-name="Path 35" d="M347.542,209h-.034a.508.508,0,0,0,0,1.016h.032a.508.508,0,0,0,0-1.016Z" transform="translate(-347 -209.001)" fill="#999" stroke="#999" stroke-width="0.5"/>
      </g>
    </g>
    <g id="Group_47" data-name="Group 47" transform="translate(10.766 16.696)">
      <g id="Group_46" data-name="Group 46" transform="translate(0 0)">
        <path id="Path_36" data-name="Path 36" d="M216.187,281.115a5.591,5.591,0,0,1-2.518-7.657.508.508,0,1,0-.9-.477,6.6,6.6,0,0,0,2.975,9.05.508.508,0,1,0,.44-.915Z" transform="translate(-212.002 -272.711)" fill="#999" stroke="#999" stroke-width="0.5"/>
      </g>
    </g>
    <g id="Group_49" data-name="Group 49" transform="translate(16.066 25.648)">
      <g id="Group_48" data-name="Group 48">
        <path id="Path_37" data-name="Path 37" d="M316.917,449h-.029a.508.508,0,0,0,0,1.016h.034a.508.508,0,0,0,0-1.016Z" transform="translate(-316.378 -448.999)" fill="#999" stroke="#999" stroke-width="0.5"/>
      </g>
    </g>
    <g id="Group_51" data-name="Group 51" transform="translate(0 3)">
      <g id="Group_50" data-name="Group 50" transform="translate(0 0)">
        <path id="Path_38" data-name="Path 38" d="M19.673,11.743a2.331,2.331,0,0,0-.226-.415h1.322a2.336,2.336,0,1,0,0-4.672H16.7A2.334,2.334,0,0,0,14.777,3H2.336a2.336,2.336,0,0,0,0,4.672H6.4a2.329,2.329,0,0,0,0,2.641H5.078a2.335,2.335,0,0,0-1.452,4.164,2.332,2.332,0,0,0,0,3.656,2.332,2.332,0,0,0,0,3.656,2.335,2.335,0,0,0,1.452,4.164h5.985a8.631,8.631,0,1,0,8.61-14.21Zm1.1-4.071a1.32,1.32,0,1,1,0,2.641H8.328a1.32,1.32,0,1,1,0-2.641ZM2.336,6.656a1.32,1.32,0,0,1,0-2.641H14.777a1.32,1.32,0,1,1,0,2.641Zm2.742,4.672H17.519a1.32,1.32,0,0,1,.576.133c-.24-.02-.483-.031-.728-.031a8.606,8.606,0,0,0-6.109,2.539H5.078a1.32,1.32,0,1,1,0-2.641Zm0,3.656h5.312a8.608,8.608,0,0,0-1.305,2.641H5.078a1.32,1.32,0,1,1,0-2.641Zm0,3.656H8.852a8.64,8.64,0,0,0-.031,2.641H5.078a1.32,1.32,0,0,1,0-2.641Zm0,6.3a1.32,1.32,0,1,1,0-2.641h3.95a8.6,8.6,0,0,0,1.218,2.641ZM17.367,27.68a7.617,7.617,0,1,1,7.617-7.617A7.626,7.626,0,0,1,17.367,27.68Z" transform="translate(0 -3)" fill="#999" stroke="#999" stroke-width="0.5"/>
      </g>
    </g>
  </g>
</svg>
