<svg id="speedometer" xmlns="http://www.w3.org/2000/svg" width="23.4" height="23.4" viewBox="0 0 23.4 23.4">
  <g id="Group_2" data-name="Group 2">
    <g id="Group_1" data-name="Group 1">
      <path id="Path_1" data-name="Path 1" d="M19.973,3.427a11.7,11.7,0,0,0-16.546,0h0A11.624,11.624,0,0,0,0,11.7H0a11.6,11.6,0,0,0,2.34,7.02.686.686,0,0,0,.548.274H20.512a.685.685,0,0,0,.548-.274A11.6,11.6,0,0,0,23.4,11.7h0A11.624,11.624,0,0,0,19.973,3.427Zm.19,14.2H3.237a10.216,10.216,0,0,1-1.843-5.238h.76a.686.686,0,0,0,0-1.371h-.76A10.286,10.286,0,0,1,3.931,4.9l.534.534a.686.686,0,0,0,.969-.97L4.9,3.931a10.286,10.286,0,0,1,6.114-2.537v.76a.686.686,0,1,0,1.371,0v-.76A10.286,10.286,0,0,1,18.5,3.931l-.534.534a.686.686,0,1,0,.969.97l.534-.534a10.286,10.286,0,0,1,2.537,6.114h-.76a.686.686,0,0,0,0,1.371h.761A10.217,10.217,0,0,1,20.163,17.623Z" fill="#999"/>
    </g>
  </g>
  <g id="Group_4" data-name="Group 4" transform="translate(6.609 22.029)">
    <g id="Group_3" data-name="Group 3">
      <path id="Path_2" data-name="Path 2" d="M154.1,482h-8.812a.686.686,0,0,0,0,1.371H154.1a.686.686,0,1,0,0-1.371Z" transform="translate(-144.6 -482)" fill="#999"/>
    </g>
  </g>
  <g id="Group_6" data-name="Group 6" transform="translate(8.812 7.202)">
    <g id="Group_5" data-name="Group 5">
      <path id="Path_3" data-name="Path 3" d="M199.985,157.777a.685.685,0,0,0-.969,0l-1.829,1.829a2.89,2.89,0,1,0,.969.969l1.829-1.829A.686.686,0,0,0,199.985,157.777Zm-4.3,5.815a1.517,1.517,0,1,1,1.517-1.517A1.519,1.519,0,0,1,195.687,163.591Z" transform="translate(-192.799 -157.576)" fill="#999"/>
    </g>
  </g>
</svg>
