<svg id="user" xmlns="http://www.w3.org/2000/svg" width="23.4" height="23.4" viewBox="0 0 23.4 23.4">
  <path id="Path_8" data-name="Path 8" d="M11.7,0A11.7,11.7,0,1,0,23.4,11.7,11.713,11.713,0,0,0,11.7,0Zm0,22.029A10.329,10.329,0,1,1,22.029,11.7,10.341,10.341,0,0,1,11.7,22.029Z" fill="#999"/>
  <path id="Path_9" data-name="Path 9" d="M155.8,69.6a4.8,4.8,0,1,0-4.8-4.8A4.8,4.8,0,0,0,155.8,69.6Zm0-8.227a3.428,3.428,0,1,1-3.428,3.428A3.432,3.432,0,0,1,155.8,61.371Z" transform="translate(-144.099 -57.258)" fill="#999"/>
  <path id="Path_10" data-name="Path 10" d="M95.982,301.62A4.8,4.8,0,0,0,92.387,300H84.16a4.8,4.8,0,0,0-3.594,1.62l-.325.367.243.426a8.96,8.96,0,0,0,15.581,0l.242-.426Zm-7.708,3.956a7.609,7.609,0,0,1-6.325-3.4,3.431,3.431,0,0,1,2.211-.809h8.227a3.431,3.431,0,0,1,2.211.809A7.609,7.609,0,0,1,88.274,305.576Z" transform="translate(-76.574 -286.289)" fill="#999"/>
</svg>
