<svg xmlns="http://www.w3.org/2000/svg" width="19.894" height="19.893" viewBox="0 0 19.894 19.893">
  <g id="edit" transform="translate(0 -0.004)" opacity="0.2">
    <g id="Group_70" data-name="Group 70" transform="translate(0 1.425)">
      <g id="Group_69" data-name="Group 69">
        <path id="Path_119" data-name="Path 119" d="M16.341,42.663a.71.71,0,0,0-.71.71v7.1a.71.71,0,0,1-.71.71H2.131a.71.71,0,0,1-.71-.71V36.268a.71.71,0,0,1,.71-.71h8.526a.71.71,0,1,0,0-1.421H2.131A2.131,2.131,0,0,0,0,36.268v14.21A2.131,2.131,0,0,0,2.131,52.61H14.92a2.131,2.131,0,0,0,2.131-2.131v-7.1A.71.71,0,0,0,16.341,42.663Z" transform="translate(0 -34.137)"/>
      </g>
    </g>
    <g id="Group_72" data-name="Group 72" transform="translate(4.263 0.004)">
      <g id="Group_71" data-name="Group 71" transform="translate(0 0)">
        <path id="Path_120" data-name="Path 120" d="M117.243.8A2.72,2.72,0,0,0,113.4.8l-9.359,9.358a.718.718,0,0,0-.171.278L102.445,14.7a.711.711,0,0,0,.674.935.722.722,0,0,0,.225-.036l4.263-1.421a.711.711,0,0,0,.278-.172l9.358-9.358A2.72,2.72,0,0,0,117.243.8Zm-1,2.842L107,12.879l-2.76.921.919-2.756,9.24-9.236a1.3,1.3,0,1,1,1.837,1.834Z" transform="translate(-102.409 -0.004)"/>
      </g>
    </g>
  </g>
</svg>
