<svg xmlns="http://www.w3.org/2000/svg" width="18.598" height="23" viewBox="0 0 18.598 23">
  <g id="trash-can" transform="translate(-49)">
    <path id="Path_381" data-name="Path 381" d="M64.049,2.92H62.566V1.348A1.349,1.349,0,0,0,61.219,0h-5.84a1.349,1.349,0,0,0-1.348,1.348V2.92H52.549A3.553,3.553,0,0,0,49,6.469a.674.674,0,0,0,.674.674H50.5l1.382,15.244a.674.674,0,0,0,.671.613h11.5a.674.674,0,0,0,.671-.613L66.1,7.143h.822a.674.674,0,0,0,.674-.674A3.553,3.553,0,0,0,64.049,2.92ZM55.378,1.348h5.841V2.92h-5.84Zm-2.829,2.92h11.5a2.205,2.205,0,0,1,2.1,1.527H50.453A2.205,2.205,0,0,1,52.549,4.268ZM63.433,21.652H53.164L51.849,7.143h12.9Z" transform="translate(0 0)" fill="#999"/>
    <path id="Path_382" data-name="Path 382" d="M241.674,250.254a.674.674,0,0,0,.674-.674v-7.906a.674.674,0,0,0-1.348,0v7.906A.674.674,0,0,0,241.674,250.254Z" transform="translate(-183.375 -230.174)" fill="#999"/>
    <path id="Path_383" data-name="Path 383" d="M161.721,249.641a.674.674,0,1,0,1.342-.122l-.719-7.906a.674.674,0,1,0-1.342.122Z" transform="translate(-106.968 -230.173)" fill="#999"/>
    <path id="Path_384" data-name="Path 384" d="M305.612,250.249a.674.674,0,0,0,.732-.61l.719-7.906a.674.674,0,0,0-1.342-.122L305,249.517A.674.674,0,0,0,305.612,250.249Z" transform="translate(-244.499 -230.172)" fill="#999"/>
  </g>
</svg>
